<?xml version="1.0" encoding="utf-8"?>
<!-- Generator: Adobe Illustrator 17.1.0, SVG Export Plug-In . SVG Version: 6.00 Build 0)  -->
<!DOCTYPE svg PUBLIC "-//W3C//DTD SVG 1.1//EN" "http://www.w3.org/Graphics/SVG/1.1/DTD/svg11.dtd">
<svg version="1.1" id="Laag_1" xmlns="http://www.w3.org/2000/svg" xmlns:xlink="http://www.w3.org/1999/xlink" x="0px" y="0px"
	 viewBox="0 0 10 16" enable-background="new 0 0 10 16" xml:space="preserve">
<path fill-rule="evenodd" clip-rule="evenodd" fill="#F6F6F6" d="M6.6,2.6l0.7,0.7c0.1,0.1,0.1,0.3,0,0.4L2.7,8.5
	c-0.1,0.1-0.3,0.1-0.4,0L1.6,7.7c-0.1-0.1-0.1-0.3,0-0.4l4.6-4.8C6.3,2.5,6.5,2.5,6.6,2.6z"/>
<path fill-rule="evenodd" clip-rule="evenodd" fill="#F6F6F6" d="M7.4,12.7l-0.8,0.8c-0.1,0.1-0.3,0.1-0.4,0L1.1,8.2
	C1,8.1,1,7.9,1.1,7.8L1.9,7C2,6.9,2.2,6.9,2.3,7l5.2,5.3C7.5,12.4,7.5,12.6,7.4,12.7z"/>
</svg>
