<?xml version="1.0" encoding="utf-8"?>
<!-- Generator: Adobe Illustrator 17.1.0, SVG Export Plug-In . SVG Version: 6.00 Build 0)  -->
<!DOCTYPE svg PUBLIC "-//W3C//DTD SVG 1.1//EN" "http://www.w3.org/Graphics/SVG/1.1/DTD/svg11.dtd">
<svg version="1.1" id="Layer_1" xmlns="http://www.w3.org/2000/svg" xmlns:xlink="http://www.w3.org/1999/xlink" x="0px" y="0px"
	 viewBox="0 0 400 400" enable-background="new 0 0 400 400" xml:space="preserve">
<g>
	<path fill="#BE202E" d="M174.6,152.4l-0.3-7.4c-0.9-14.4,4-29.3,16.8-44.6c9.1-10.8,16.5-19.9,16.5-29.6c0-10-6.5-16.5-20.7-17.1
		c-9.4,0-20.7,3.4-28.1,8.5L149,31.4c10.2-6,27.2-11.6,47.4-11.6c37.5,0,54.5,20.7,54.5,44.3c0,21.6-13.4,35.8-24.1,47.7
		c-10.5,11.6-14.7,22.7-14.4,35.5v5.1H174.6z M167.3,191.5c0-15,10.5-25.9,25.3-25.9c15.3,0,25.3,10.8,25.6,25.9
		c0,14.7-10.2,25.9-25.6,25.9C177.4,217.4,167.3,206.4,167.3,191.5z"/>
</g>
<g>
	<path fill="#EF4237" d="M105.5,290.4c-2.3,1.2-7.5,2.4-14.1,2.4c-19,0-28.9-11.9-28.9-27.6c0-18.8,13.4-29.3,30.1-29.3
		c6.4,0,11.3,1.3,13.6,2.4l-2.5,9.9c-2.5-1.1-6-2-10.5-2c-9.9,0-17.6,6-17.6,18.2c0,11.1,6.5,18,17.7,18c3.7,0,8-0.8,10.4-1.9
		L105.5,290.4z"/>
	<path fill="#EF4237" d="M151.1,271.5c0,14.6-10.4,21.3-21,21.3c-11.7,0-20.6-7.7-20.6-20.6c0-12.9,8.5-21.2,21.3-21.2
		C143,251.2,151.1,259.5,151.1,271.5z M122.2,272.1c0,6.9,2.8,12,8.1,12c4.8,0,8-4.8,8-12c0-6-2.3-12-8-12
		C124.5,259.9,122.2,266.1,122.2,272.1z"/>
	<path fill="#EF4237" d="M158.9,264.9c0-4.9-0.1-9.2-0.3-12.8h10.5l0.5,5.3h0.3c1.7-2.5,5.2-6.3,12.1-6.3c5.2,0,9.2,2.7,10.9,6.8
		h0.1c1.5-2,3.3-3.7,5.2-4.8c2.3-1.3,4.7-2,7.6-2c7.7,0,13.4,5.3,13.4,17.3V292h-12.1v-21.7c0-5.9-1.9-9.2-5.9-9.2
		c-2.8,0-4.9,2-5.7,4.4c-0.3,0.9-0.5,2.3-0.5,3.2V292H183v-22.4c0-5.1-1.7-8.5-5.7-8.5c-3.2,0-5.1,2.4-5.9,4.5
		c-0.4,0.9-0.5,2.1-0.5,3.1V292h-12.1v-27.2H158.9z"/>
	<path fill="#EF4237" d="M241.9,240.9c0,3.5-2.7,6.3-6.7,6.3c-3.9,0-6.5-2.8-6.4-6.3c-0.1-3.6,2.5-6.3,6.5-6.3
		C239.3,234.6,241.8,237.3,241.9,240.9z M229.2,292v-39.9h12.4V292H229.2z"/>
	<path fill="#EF4237" d="M251.5,264.9c0-4.9-0.1-9.2-0.3-12.8H262l0.5,5.5h0.3c1.6-2.5,5.7-6.4,12.4-6.4c8.1,0,14.2,5.3,14.2,17.2
		V292h-12.4v-22.1c0-5.2-1.7-8.7-6.3-8.7c-3.5,0-5.5,2.4-6.3,4.7c-0.3,0.8-0.5,2-0.5,3.1v23h-12.5V264.9z"/>
	<path fill="#EF4237" d="M337.5,252.1c-0.1,2.5-0.3,5.9-0.3,11.9v22.2c0,7.7-1.6,14-6,18c-4.4,3.7-10.4,4.9-16.2,4.9
		c-5.2,0-10.8-1.1-14.4-3.1l2.4-9.5c2.5,1.5,6.9,3.1,11.6,3.1c5.9,0,10.4-3.2,10.4-10.5v-2.7h-0.3c-2.4,3.3-6.3,5.2-10.8,5.2
		c-9.9,0-16.9-8-16.9-19.6c0-12.8,8.4-21,18.1-21c5.5,0,8.9,2.4,10.9,5.6h0.1l0.4-4.8h10.9V252.1z M324.8,268.3
		c0-0.8-0.1-1.6-0.3-2.3c-0.9-3.3-3.3-5.5-6.7-5.5c-4.5,0-8.1,4.1-8.1,11.3c0,6,2.9,10.7,8.1,10.7c3.2,0,5.7-2.1,6.5-5.1
		c0.3-0.9,0.4-2.3,0.4-3.3L324.8,268.3L324.8,268.3z"/>
	<path fill="#EF4237" d="M116.9,379.2c2.3,1.3,7.1,3.1,10.7,3.1c3.7,0,5.3-1.3,5.3-3.3s-1.2-3.1-5.9-4.5c-8.3-2.8-11.5-7.3-11.3-12
		c0-7.5,6.4-13,16.2-13c4.7,0,8.8,1.1,11.3,2.3l-2.3,8.5c-1.7-0.9-5.2-2.3-8.7-2.3c-3.1,0-4.8,1.2-4.8,3.3c0,1.9,1.6,2.8,6.4,4.5
		c7.6,2.7,10.8,6.4,10.9,12.4c0,7.5-5.9,12.9-17.3,12.9c-5.2,0-9.9-1.2-12.9-2.8L116.9,379.2z"/>
	<path fill="#EF4237" d="M191.9,369.7c0,14.6-10.4,21.3-21,21.3c-11.7,0-20.6-7.7-20.6-20.6s8.5-21.2,21.3-21.2
		C183.8,349.2,191.9,357.7,191.9,369.7z M163,370.1c0,6.9,2.8,12,8.1,12c4.8,0,8-4.8,8-12c0-6-2.3-12-8-12
		C165.2,358.1,163,364.2,163,370.1z"/>
	<path fill="#EF4237" d="M239.3,369.7c0,14.6-10.4,21.3-21,21.3c-11.7,0-20.6-7.7-20.6-20.6s8.5-21.2,21.3-21.2
		C231.2,349.2,239.3,357.7,239.3,369.7z M210.4,370.1c0,6.9,2.8,12,8.1,12c4.8,0,8-4.8,8-12c0-6-2.3-12-8-12
		C212.5,358.1,210.4,364.2,210.4,370.1z"/>
	<path fill="#EF4237" d="M247,362.9c0-4.9-0.1-9.2-0.3-12.8h10.8l0.5,5.5h0.3c1.6-2.5,5.7-6.4,12.4-6.4c8.1,0,14.2,5.3,14.2,17.2
		V390h-12.4v-22.1c0-5.2-1.7-8.7-6.3-8.7c-3.5,0-5.5,2.4-6.3,4.7c-0.3,0.8-0.5,2-0.5,3.1v23h-12.4v-27.2H247z"/>
</g>
</svg>
